<?xml version="1.0" encoding="utf-8"?>
<!-- Generator: Adobe Illustrator 26.3.1, SVG Export Plug-In . SVG Version: 6.00 Build 0)  -->
<svg version="1.1" id="Layer_2_00000033332031843231830510000014287945333972761246_"
	 xmlns="http://www.w3.org/2000/svg" xmlns:xlink="http://www.w3.org/1999/xlink" x="0px" y="0px" viewBox="0 0 262.2 363.8"
	 style="enable-background:new 0 0 262.2 363.8;" xml:space="preserve">
<style type="text/css">
	.st0{fill:#1D1D1D;}
	.st1{fill:#221F1F;}
	.st2{stroke:#000000;stroke-width:2;stroke-miterlimit:10;}
	.st3{fill:none;stroke:#000000;stroke-miterlimit:10;}
	.st4{stroke:#000000;stroke-miterlimit:10;}
</style>
<path d="M81.7,155.4c0,0,1.7,0.3,4.4,0.8c2.7,0.5,6.4,1,10.2,1.4c3.9,0.4,8,0.7,11.5,0.7c3.6-0.1,6.6-0.5,8.3-1.5
	c-0.5-0.7-0.6-1.4-0.6-2.2s0-1.5,0-2.2s-0.1-1.3-0.5-1.8s-1-0.8-2.1-0.9c-5-0.4-8.9-0.9-12.1-1.5s-5.6-1.2-7.7-1.8s-3.8-1.2-5.5-1.8
	s-3.3-1.1-5.3-1.5c0,0-0.7,0.7-1.9,2c-1.2,1.3-2.8,3-4.6,5c-1.8,2-3.7,4.3-5.6,6.7"/>
<g>
	<path d="M149.7,149.8c-1.1,0.1-1.7,0.4-2.1,0.9c-0.4,0.5-0.5,1.1-0.5,1.8s0.1,1.4,0,2.2c0,0.8-0.2,1.5-0.6,2.2
		c1.1,0.7,2.8,1.1,4.8,1.3s4.4,0.3,6.9,0.2s5.1-0.3,7.7-0.6c2.6-0.3,5-0.6,7.2-0.9l-2.1-2.3l-2.1-2.3l-2.1-2.3l-2.1-2.3
		c-0.9,0.2-1.9,0.4-3,0.6s-2.2,0.4-3.5,0.6c-1.2,0.2-2.6,0.4-4,0.5C153,149.5,151.4,149.6,149.7,149.8L149.7,149.8L149.7,149.8
		L149.7,149.8L149.7,149.8z"/>
	<path d="M192.4,156.9c-1.9-2.4-3.8-4.7-5.6-6.7s-3.4-3.8-4.6-5s-1.9-2-1.9-2c-1,0.2-1.9,0.4-2.8,0.7c-0.9,0.3-1.7,0.5-2.6,0.8
		c-0.9,0.3-1.7,0.6-2.7,0.9c-0.9,0.3-1.9,0.6-3,0.9l1.7,2.4l1.7,2.4l1.7,2.4l1.7,2.4c0.7-0.1,1.4-0.2,2-0.3s1.1-0.2,1.5-0.3
		s0.7-0.1,1-0.2c0.3-0.1,0.3-0.1,0.3-0.1"/>
</g>
<path d="M147.9,229L147.9,229l-1.8,1c0,0,2.2,3.9,0.6,6.5c-1.1,1.9-3.9,2.9-8.2,2.9H138l-0.3,0.5c-1.4,2-3.2,3.3-5.3,3.6
	c-0.4,0.1-0.9,0.1-1.3,0c-0.5,0-0.9,0-1.3,0c-2.1-0.3-3.9-1.5-5.3-3.6l-0.3-0.4h-0.5c-4.3-0.1-7.1-1.1-8.2-2.9
	c-1.6-2.7,0.6-6.5,0.6-6.5l-1.8-1c-0.1,0.2-2.8,4.8-0.6,8.5c1.4,2.4,4.6,3.8,9.4,3.9c1.7,2.3,3.9,3.7,6.4,4c0.4,0.1,0.9,0.1,1.4,0.1
	c0.1,0,0.2,0,0.3,0s0.2,0,0.3,0c0.5,0,0.9,0,1.4-0.1c2.5-0.4,4.7-1.7,6.4-4c4.8-0.2,8-1.5,9.4-3.9C150.7,233.8,148,229.2,147.9,229z
	"/>
<path class="st0" d="M196.3,174.6h-12.8h-12.8h-12.8h-12.8c-0.4,0-0.8,0.1-1.2,0.2c-0.4,0.1-0.7,0.3-1.1,0.6
	c-0.3,0.3-0.6,0.6-0.9,0.9s-0.5,0.8-0.7,1.2v0.1v0.1v0.1v0.1c-0.7,0.2-1.5,0.3-2.4,0.4c-0.8,0.1-1.7,0.2-2.6,0.3
	c-0.9,0.1-1.8,0.1-2.8,0.1c-0.9,0-1.9,0-2.8,0.1c-0.9,0-1.9,0-2.8,0s-1.9-0.1-2.8-0.1c-0.9-0.1-1.8-0.2-2.6-0.3
	c-0.8-0.1-1.6-0.2-2.4-0.4v-0.1v-0.1v-0.1v-0.1l0,0l0,0l0,0l0,0c-0.2-0.5-0.5-0.9-0.7-1.2c-0.3-0.4-0.6-0.7-0.9-0.9
	s-0.7-0.5-1.1-0.6s-0.8-0.2-1.2-0.2h-12.9H90.5H77.7H64.9c-0.7,0-1.3,0.2-1.8,0.5c-0.6,0.3-1.1,0.8-1.5,1.4c-0.4,0.6-0.8,1.3-1,2.2
	c-0.2,0.8-0.4,1.7-0.4,2.7v5.8v5.8v5.8v5.8c0,1,0.1,1.9,0.4,2.7s0.6,1.6,1,2.2c0.4,0.6,0.9,1.1,1.5,1.4c0.6,0.3,1.2,0.5,1.8,0.5
	h12.8h12.8h12.8h12.8c0.7,0,1.3-0.2,1.8-0.5c0.6-0.3,1.1-0.8,1.5-1.4c0.4-0.6,0.8-1.3,1-2.2s0.4-1.7,0.4-2.7v-4.2v-4.2v-4.2v-4.2
	c0.1,0.1,0.1,0.2,0.2,0.2s0.1,0.1,0.1,0.2s0.1,0.1,0.1,0.1l0,0c0,0,0.3-0.3,0.7-0.7c0.5-0.4,1.2-0.9,2-1.5c0.9-0.5,1.9-1.1,3-1.5
	c1.1-0.4,2.4-0.7,3.7-0.8l0,0l0,0l0,0l0,0c1.3,0.1,2.5,0.4,3.7,0.8c1.2,0.4,2.2,1,3,1.5c0.9,0.5,1.6,1.1,2,1.5s0.7,0.7,0.7,0.7l0,0
	c0,0,0-0.1,0.1-0.1s0.1-0.1,0.1-0.2c0-0.1,0.1-0.1,0.2-0.2v4.2v4.2v4.2v4.2c0,1,0.1,1.9,0.4,2.7c0.2,0.8,0.6,1.6,1,2.2
	c0.4,0.6,0.9,1.1,1.5,1.4c0.6,0.3,1.2,0.5,1.8,0.5h12.8h12.8h12.8h12.8c0.7,0,1.3-0.2,1.8-0.5c0.6-0.3,1.1-0.8,1.5-1.4
	c0.4-0.6,0.8-1.3,1-2.2c0.2-0.8,0.4-1.7,0.4-2.7v-5.8v-5.8v-5.9v-5.8c0-1-0.1-1.9-0.4-2.7c-0.3-0.8-0.6-1.6-1-2.2
	c-0.4-0.6-0.9-1.1-1.5-1.4C197.6,174.8,197,174.6,196.3,174.6z"/>
<path class="st1" d="M122,186.2c-0.4,25.6-3.4,36.3-3.5,36.8l0,0l-2.6-0.7c0-0.1,2.9-10.9,3.4-36.1"/>
<path class="st1" d="M122,186.2c-0.4,25.6-3.4,36.3-3.5,36.8l0,0l-2.6-0.7c0-0.1,2.9-10.9,3.4-36.1"/>
<path class="st1" d="M141.9,186.1c0.4,25.2,3.3,36,3.4,36.1l-2.6,0.7l0,0c-0.1-0.4-3-11.1-3.5-36.8"/>
<g>
	<path d="M47.4,218.6l-0.1-0.5 M47.3,217.9l-0.1-0.9c-0.1-0.7-0.2-1.5-0.2-2.2s-0.2-1.6-0.2-2.4c-0.1-0.8-0.1-1.7-0.2-2.6
		c-0.1-0.9-0.1-1.8-0.2-2.8c-0.1-0.9-0.1-1.9-0.2-2.9c-0.1-1-0.1-2.1-0.2-3.1c-0.1-1.1-0.1-2.2-0.1-3.3s-0.1-2.3-0.1-3.6l-0.1-5.3
		c0-2.1-0.2-4.5-0.6-7.5c-0.2-2.1-0.5-4.2-0.8-6.4l-0.3-2.1c-0.4-2.9-0.8-6-1.1-9.3c-0.3-3.6-0.5-6.9-0.5-9.9
		c0-3.7,0.2-7.1,0.7-10.4c0.5-3.7,1.3-7.3,2.4-10.7c1.2-3.7,2.8-7.4,4.8-10.9c2-3.6,4.5-7.1,7.4-10.5c0.9-5.1,2.4-9.9,4.5-14.3
		c2-4.2,4.6-8.1,7.8-11.6c2.9-3.2,6.4-6.2,10.3-8.8c3.6-2.4,7.6-4.5,11.9-6.3c4-1.7,8.3-3.1,12.9-4.3c4.1-1.1,8.5-1.9,13.1-2.6
		c4.1-0.6,8.3-1,12.7-1.3c3.7-0.2,7.6-0.4,11.5-0.4c1.4,0,2.7,0,4,0s2.5,0.1,3.7,0.1s2.3,0.1,3.3,0.2c1,0.1,2,0.1,2.9,0.2
		c0.9,0.1,1.7,0.1,2.5,0.2c0.7,0.1,1.4,0.1,2,0.2l1.4,0.1c0.4,0,0.6,0.1,0.8,0.1l1.7,0.1l-1.3,6.9l5,0.2c5,0.9,9.7,2.4,14.2,4.5
		c4.1,1.9,8,4.2,11.5,7c3.2,2.5,6.3,5.5,9.2,8.7c2.5,2.9,4.9,6.1,7,9.6c1.9,3,3.6,6.2,5.2,9.5c1.3,2.8,2.5,5.7,3.7,8.7
		c0.8,2.2,1.6,4.4,2.4,7c0.3,0.9,0.5,1.6,0.7,2.3c0.3,0.9,0.5,1.6,0.7,2.1l0.1,0.3c0.2,1.5,0.3,3.2,0.3,4.9s0,3.5-0.1,5.5
		c-0.1,1.9-0.2,3.9-0.4,5.9s-0.4,4.2-0.7,6.4c-0.3,2.1-0.6,4.4-1,6.7c-0.4,2.2-0.8,4.6-1.2,6.9s-0.9,4.7-1.4,7.1
		c-0.5,2.3-1,4.7-1.5,7.1l-0.8,10.5c-0.1,1.1-0.5,7.2-0.6,8.4s-0.2,2.4-0.3,3.5c-0.1,1.2-0.2,2.4-0.3,3.6c-0.1,1.2-0.2,2.4-0.3,3.6
		c-0.1,1.2-0.2,2.4-0.4,3.5c-0.1,1.2-0.2,2.3-0.4,3.4c-0.1,1.1-0.3,2.2-0.4,3.3c-0.1,1.1-0.3,2.1-0.4,3.1c-0.1,0.5-0.1,1-0.2,1.5
		c-0.1,0.5-0.1,1-0.2,1.5c-0.1,0.5-0.1,0.9-0.2,1.4c-0.1,0.4-0.2,0.9-0.2,1.3c-0.1,0.4-0.2,0.8-0.2,1.2c-0.1,0.4-0.2,0.7-0.2,1.1
		c-0.1,0.3-0.2,0.7-0.2,1c-0.1,0.3-0.2,0.6-0.3,0.9v0.1c-0.1,0.6-0.3,1.3-0.5,2s-0.3,1.4-0.5,2.1c-0.2,0.7-0.3,1.4-0.5,2.1
		c-0.2,0.7-0.4,1.4-0.5,2c-0.2,0.7-0.4,1.4-0.6,2c-0.2,0.7-0.4,1.3-0.6,2c-0.2,0.7-0.4,1.3-0.6,2c-0.2,0.7-0.4,1.3-0.6,2l-0.8,2.4
		c-1.7,5.1-3.7,10-5.8,14.7c-2.1,4.6-4.5,9.1-7,13.2s-5.3,8-8.1,11.6c-2.9,3.6-5.9,6.9-9.1,9.8c-3.2,3-6.6,5.6-10.1,7.9
		s-7.2,4.3-10.9,5.8c-3.8,1.6-7.7,2.8-11.6,3.6c-4,0.8-8.1,1.2-12.3,1.2c-4.9,0-9.8-0.6-14.6-1.9c-4.7-1.2-9.3-3.1-13.8-5.5
		c-4.4-2.3-8.7-5.2-12.8-8.6c-4-3.3-7.9-7.2-11.6-11.5c-3.6-4.2-7-8.9-10.2-14c-3.1-5-6-10.5-8.6-16.1c-2.6-5.7-4.8-11.8-6.7-18
		c-1.9-6.3-3.5-12.8-4.7-19.5l0,0l-0.9-5.5 M50.4,218.2l0.9,5.5c0.1,0.6,0.2,1.2,0.4,1.7c0.1,0.6,0.2,1.1,0.4,1.6
		c0.1,0.5,0.3,1,0.4,1.5c0.1,0.5,0.3,0.9,0.4,1.3c0.1,0.4,0.3,0.8,0.4,1.2c0.1,0.4,0.3,0.8,0.4,1.1c0.1,0.4,0.5,0.7,0.4,1.1
		c-0.4,1.6-0.5,1.3-0.4,1.6l0,0c0.7,2.7,1.4,5.3,2.2,7.9c1.9,6.1,4.1,12,6.6,17.6c2.5,5.6,5.3,10.9,8.4,15.8s6.4,9.5,9.9,13.6
		s7.3,7.9,11.2,11.1c4,3.3,8.1,6.1,12.3,8.3c4.3,2.3,8.7,4,13.2,5.2c8.4,2.2,17.2,2.3,25.5,0.6c3.8-0.8,7.5-1.9,11.1-3.4
		s7.1-3.4,10.4-5.6c3.3-2.2,6.6-4.7,9.7-7.6c3.1-2.8,6-6,8.8-9.5c2.8-3.4,5.4-7.2,7.9-11.2s4.8-8.4,6.9-12.9c2.1-4.5,4-9.4,5.7-14.4
		l0.8-2.3c0.2-0.6,0.4-1.3,0.6-1.9c0.2-0.6,0.4-1.3,0.6-1.9c0.2-0.7,0.4-1.3,0.6-2c0.2-0.7,0.4-1.3,0.6-2c0.2-0.7,0.4-1.3,0.5-2
		c0.2-0.7,0.3-1.4,0.5-2c0.2-0.7,0.3-1.4,0.5-2.1c0.2-0.7,0.3-1.4,0.5-2.1l0.1-0.4c0.1-0.2,0.1-0.4,0.2-0.7c0.1-0.3,0.1-0.6,0.2-0.9
		c0.1-0.3,0.2-0.7,0.2-1c0.1-0.4,0.1-0.7,0.2-1.1c0.1-0.4,0.1-0.8,0.2-1.2c0.1-0.4,0.1-0.9,0.2-1.3c0.1-0.5,0.1-0.9,0.2-1.4
		c0.1-0.5,0.1-1,0.2-1.5c0.1-1,0.3-2,0.4-3c0.1-1.1,0.3-2.1,0.4-3.3c0.1-1.1,0.2-2.3,0.4-3.4c0.1-1.2,0.2-2.3,0.4-3.5
		c0.1-1.2,0.2-2.4,0.3-3.6c0.1-1.2,0.2-2.4,0.3-3.6c0.1-1.2,0.2-2.4,0.3-3.5c0.1-1.2,0.2-2.3,0.8-10l0.6-13c1.1-2.3,1.2-1.1,1.7-3.4
		c0.5-2.4,1-4.8,1.4-7.1c0.4-2.4,0.8-4.7,1.2-6.9c0.4-2.3,0.7-4.5,0.9-6.6c0.3-2.2,0.5-4.3,0.7-6.2c0.2-2,0.3-4,0.4-5.8
		c0.1-1.9,0.1-3.6,0.1-5.3c0-1.6-0.1-3.1-0.3-4.5c-0.2-0.5-0.4-1.2-0.6-2.1c-0.2-0.7-0.4-1.5-0.7-2.3c-0.8-2.5-1.5-4.7-2.3-6.9
		c-1.1-2.9-2.3-5.8-3.6-8.5c-1.5-3.3-3.2-6.4-5-9.2c-2.1-3.3-4.4-6.4-6.8-9.2c-2.7-3.1-5.6-5.9-8.7-8.3c-3.4-2.7-7.1-4.9-11-6.7
		c-4.2-1.9-8.7-3.3-13.4-4.2l-8.4-0.3l0.8-2.9l0.8-4.2l-1.1,0.2c-0.6-0.1-1.2-0.1-1.9-0.2s-1.5-0.1-2.4-0.2s-1.8-0.1-2.9-0.2
		c-1-0.1-2.1-0.1-3.3-0.2c-1.2,0-2.4-0.1-3.6-0.1c-1.3,0-2.6,0-4,0c-3.8,0-7.7,0.1-11.3,0.3c-4.3,0.4-8.5,0.8-12.5,1.4
		c-4.5,0.7-8.8,1.5-12.8,2.5c-4.5,1.1-8.7,2.5-12.5,4.1c-4.2,1.7-8,3.8-11.4,6.1c-3.7,2.5-6.9,5.3-9.7,8.3c-3,3.3-5.4,6.9-7.3,10.9
		c-2,4.2-3.5,8.9-4.3,13.9l-0.1,0.4l-0.3,0.3c-2.8,3.3-5.3,6.7-7.3,10.3c-1.8,3.4-3.3,6.9-4.5,10.4c-1,3.2-1.8,6.7-2.3,10.2
		c-0.4,3.2-0.7,6.5-0.7,10c0,3,0.2,6.2,0.5,9.7c0.3,3.2,0.7,6.3,1.1,9.2l0.3,2.1c0.3,2.2,0.6,4.4,0.8,6.5c0.4,3.1,0.5,5.6,0.6,7.8
		l0.1,5.3c0,1.2,0.1,2.4,0.1,3.5s0.1,2.2,0.1,3.3s0.1,2.1,0.2,3.1c0.1,1,0.1,2,0.2,2.9c0.1,0.9,0.1,1.8,0.2,2.7
		c0.1,0.9,0.1,1.7,0.2,2.5c0.1,0.8,0.2,1.6,0.2,2.4c0.1,0.8,0.2,1.5,0.2,2.2v0.2 M50.2,217l0.1,1"/>
</g>
<g>
	<path class="st2" d="M51.9,227.4l0.4,1.2c-1.8-0.8-3.7-1.6-6.9-4.5s-6.3-6.8-8.3-12.2c-0.6-1.6-1.1-3.2-1.7-4.7
		c-0.6-1.5-1.1-3.1-1.6-4.5c-1.7-4.7-3.2-9.1-4.6-12.8c-1.4-3.6-2.6-6.5-3.7-8.1c-0.9-1.4-1.1-4.7-0.5-8.5c0.6-3.7,2.1-7.8,4.7-10.5
		c1.2-1.3,2.9-2.5,5.1-3s5-0.1,8.4,1.7l-0.2,0.4l-0.2,0.4c-2.5-1.4-4.8-1.9-6.8-1.8c-2,0.1-3.9,1.1-5.5,2.8
		c-2.4,2.5-3.8,6.3-4.4,9.8s-0.5,6.7,0.3,7.9c1.1,1.7,2.3,4.5,3.7,8.1c1.4,3.6,3,8,4.7,13c0.5,1.5,1.1,3,1.6,4.5s1.1,3.1,1.7,4.7
		c1.9,5.2,5,9.1,8,11.8"/>
</g>
<path class="st3" d="M238.7,173.4c-0.6-3.7-2.1-7.8-4.7-10.5c-1.2-1.3-2.9-2.5-5.1-3s-5-0.1-8.4,1.7l0.2,0.4l0.2,0.4
	c2.5-1.4,4.8-1.9,6.8-1.8c2,0.1,3.9,1.1,5.5,2.8c2.4,2.5,3.8,6.3,4.4,9.8c0.6,3.5,0.5,6.7-0.3,7.9c-1.1,1.7-2.3,4.5-3.7,8.1
	s-3,8-4.7,13c-0.5,1.5-1.1,3-1.6,4.5s-1.1,3.1-1.7,4.7c-1.9,5.2-5,9.1-8,11.8c-3.1,2.7-6.1,4.3-7.8,5.1l0.2,0.5l0.2,0.7
	c1.8-0.8,4.9-2.5,8.1-5.3s6.3-6.8,8.3-12.2c0.6-1.6,1.1-3.2,1.7-4.7c0.5-1.5,1.1-3.1,1.6-4.5c1.7-4.7,3.2-9.1,4.6-12.8
	c1.4-3.6,2.6-6.5,3.7-8.1C239.1,180.5,239.3,177.2,238.7,173.4z"/>
<path d="M152.8,307.8c-5.1,0-9.8-0.7-13.5-2s-6.5-3-7.7-5.1l0,0l0,0l0,0l0,0l0,0l0,0c-1.2,2-3.9,3.8-7.7,5c-3.7,1.3-8.4,2-13.5,2
	c-0.4,0-0.7,0-1.1,0s-0.7,0-1,0c3.1,1.1,6.7,2.3,10.6,3.2s8.1,1.7,12.5,2.1h0.3h0.3c4.4-0.4,8.6-1.2,12.5-2.1s7.4-2.1,10.6-3.2
	c-0.3,0-0.7,0-1,0C153.5,307.8,153.2,307.8,152.8,307.8L152.8,307.8L152.8,307.8z"/>
<g>
	<g>
		<path class="st4" d="M97.6,271c-0.1,0-0.1,0-0.2-0.1C97.4,270.9,97.5,270.9,97.6,271z"/>
		<path d="M163.8,270.7L163.8,270.7c-0.1,0-0.1,0-0.2,0.1c-0.1,0.1-0.1,0-0.1,0h-0.1l0,0l0,0l0,0l0,0c-0.1,0-0.3,0.1-0.7,0.2
			s-1,0.1-1.9,0c-0.8-0.1-1.9-0.2-3.3-0.3c-1.5-0.2-3.1-0.6-5.2-1.1c-2.5-0.7-4.4-1.1-6.2-1.4c-1.7-0.3-3-0.4-4.2-0.5
			c-1.2,0-2.1,0.1-3.1,0.3c-1,0.2-1.8,0.5-2.7,0.9c-0.5,0.2-0.9,0.3-1.3,0.4c-0.4,0.1-0.8,0.2-1.2,0.3c-0.4,0.1-0.8,0.1-1.1,0.2
			s-0.6,0.1-0.9,0.1c-0.1,0-0.3,0-0.4,0.1c-0.1,0.1-0.2,0-0.3,0s-0.2,0-0.2,0s-0.1,0-0.2,0s-0.1,0-0.2,0c-0.1,0-0.1,0-0.2,0
			s-0.2,0-0.3,0s-0.2,0-0.3,0c-0.3,0-0.6,0-1,0s-0.8,0-1.2-0.1s-0.9-0.1-1.4-0.2s-1-0.2-1.5-0.4c-0.1,0-0.1-0.1-0.2-0.1
			s-0.1-0.1-0.2-0.1s-0.1-0.1-0.2-0.1s-0.1-0.1-0.2-0.1c-0.8-0.3-1.6-0.7-2.4-0.9c-0.8-0.2-1.7-0.4-2.8-0.4
			c-1.1-0.1-2.3,0.1-3.9,0.3c-1.6,0.2-3.5,0.7-5.9,1.2c-2.1,0.5-3.7,0.8-5.2,1.1c-1.5,0.2-2.5,0.3-3.3,0.3s-1.1,0.3-1.5,0.2
			c-0.4-0.1-0.6-0.1-0.7-0.2l0,0l0,0l0,0l0,0c0,0,0,0-0.1,0s0,0,0,0l0,0l0,0c-0.3-0.1-0.4-0.2-0.7-0.3c-0.3-0.1-0.4-0.2-0.7-0.3
			c-0.3-0.1-0.4-0.2-0.7-0.3c-0.3-0.1-0.4-0.2-0.7-0.3c0.2,0.2,0.3,0.3,0.6,0.5c0.2,0.2,0.3,0.3,0.6,0.5c0.2,0.2,0.3,0.3,0.6,0.5
			c0.2,0.2,0.3,0.3,0.6,0.5c0.1,0,0.8,0.8,2.4,1.9c1.5,1.1,3.8,2.7,6.7,4.1c2.9,1.5,6.5,3.1,10.7,4.2s9,1.9,14.1,1.9
			c2.6,0,5.3-0.2,8.1-0.6s5.6-1.1,8.4-2.1s5.8-2.2,8.6-3.8c2.8-1.6,5.7-3.4,8.4-5.7c0.3-0.2,0.4-0.4,0.7-0.6s0.4-0.4,0.7-0.6
			s0.4-0.4,0.7-0.6s0.4-0.4,0.7-0.6c-0.3,0.2-0.5,0.3-0.9,0.4c-0.3,0.2-0.5,0.3-0.9,0.4c-0.3,0.2-0.5,0.3-0.9,0.4
			C164.3,270.3,164.2,270.4,163.8,270.7z M106.5,273.6c1,0,2.2,0,3.2,0s2.2,0,3.2-0.2c2.1-0.2,4.2-0.2,6.3-0.2s4.1,0.1,6,0.4
			c1.3,0.2,2.5,0.3,3.4,0.5c0.9,0.1,1.5,0.1,2,0.1c0.4,0.1,1,0.1,2,0c0.9-0.1,2.1-0.2,3.6-0.4c1.9-0.3,4-0.4,6-0.4
			c2.1,0,4.2,0.2,6.3,0.3c1.1,0,2.4,0.1,3.6,0.1s2.4,0,3.5,0c-8.5,2.7-18.9,3.8-27.7,3.3C119.5,276.5,111.9,275.1,106.5,273.6z"/>
		<path class="st4" d="M163.6,271.2l0.2-0.1C163.7,271.1,163.6,271.2,163.6,271.2z"/>
	</g>
</g>
<path class="st3" d="M0,324.6"/>
<path class="st3" d="M770.6,279.2"/>
</svg>
