<svg xmlns="http://www.w3.org/2000/svg" viewBox="0 0 270.21 268.25"><defs><style>.cls-1{fill:#00a8e8;}</style></defs><g id="Layer_2" data-name="Layer 2"><path class="cls-1" d="M135.11,0A134.13,134.13,0,1,0,269.23,134.12,134.13,134.13,0,0,0,135.11,0Zm74.57,191.62H197.45c-5.55,0-51.36-.62-62.31-58.19l-10.76,35.2h-9.12c.17-.36,0,0,14.67-39.43H109.87a451.66,451.66,0,0,1-28,47.68h40c-1.53,4.91-2.87,9.83-4.4,14.74H18.53c41.61-35.76,80.91-77.13,103.91-127.13-5.11-.09-10.21-.22-15.31-.43-9.74-.41-19.59-.88-29.23-2.47-3.58-.59-14.44-2.44-10.35-8.66,1.24-1.9,3.67-2.56,5.73-3.1a69.92,69.92,0,0,1,9.65-1.62,407.42,407.42,0,0,1,47.19-2.47c1.83-5.08,3.51-10.24,5-15.49a157.62,157.62,0,0,0,5.38,15.57c5.89.08,11.77.24,17.62.43a309.24,309.24,0,0,1,31.46,2.25c3.54.48,13.35,1,13.76,6.12v0a3.55,3.55,0,0,1,0,.93c-.25,3.07-3.35,4.21-5.87,4.93a67.27,67.27,0,0,1-10.75,1.83c-12.51,1.43-25.15,1.87-37.73,2.12,20.42,40.08,57.42,88.2,102.67,127.15ZM105.27,176.56l0,.06Z"/><path class="cls-1" d="M185.41,55.25,182.93,55c-11.67-1.16-23.41-1.59-35.13-1.8l-4.23-.07q.94,2.12,2,4.26c3.63-.07,7.26-.15,10.88-.26C166.08,56.82,175.78,56.35,185.41,55.25Z"/><path class="cls-1" d="M84.77,55.25l2.51.26c12.68,1.26,25.46,1.82,38.25,2,.63-1.49,1.25-3,1.84-4.48A360,360,0,0,0,84.77,55.25Z"/><path class="cls-1" d="M73.06,53.09,73,53a.23.23,0,0,1,0,.07Z"/><path class="cls-1" d="M135.1,71.66a349.06,349.06,0,0,1-13.94,40.11h27.89A349.11,349.11,0,0,1,135.1,71.66Z"/><path class="cls-1" d="M141.42,129.2s6.19,47.67,47.3,47.66L160.34,129.2Z"/><path class="cls-1" d="M73.11,57.43c-.38.22-.47.51,0,0Z"/><line class="cls-1" x1="105.22" y1="176.62" x2="105.27" y2="176.56"/></g></svg>