<svg xmlns="http://www.w3.org/2000/svg" viewBox="0 0 484.92 335.64"><defs><style>.cls-1{fill:#e92629;}</style></defs><g id="Layer_2" data-name="Layer 2"><path class="cls-1" d="M364.89,51.29a7.2,7.2,0,0,1,1.71-3.61c1.42-1.62,1-.42-.2,0-.48.16-2.94,1-.85.38-1.2.37-2.43.67-3.66.95a173.36,173.36,0,0,1-19.24,3c-20.08,2.3-40.32,3.28-60.5,3.9-47.79,1.46-96.14,1.39-143.77-3.35-7.17-.72-14.37-1.54-21.46-2.88a31.23,31.23,0,0,1-5.46-1.29c-.8-.24-1.58-.61-2.37-.82-1.61-.42.66,1-.41-.21a6.13,6.13,0,0,1,1.92,5.22,6.66,6.66,0,0,1-1.49,3.76c-1.4,1.6-1,.45.2,0,.42-.15.85-.33,1.26-.5,1.6-.66-1.72.45.13,0a131.37,131.37,0,0,1,16.93-3.14c45-6,91.29-5.8,136.62-5,24.37.45,48.81,1.33,73.07,3.75,7.71.77,15.41,1.7,23,3.18,1.28.26,3.36.88,5.86,1.64.28.09.54.23.82.34,1.08.4-1.2-1.24-.11,0-.17-.18-1.85-2.14-1.94-3.27.78,9.62,15.55,7,14.77-2.6C378.87,40,358.47,39,351.12,38c-21.65-3-43.61-3.94-65.43-4.67-51.86-1.73-104.75-2-156.36,4.08a144.55,144.55,0,0,0-20.06,3.36c-4.28,1.13-9.34,2.49-11.93,6.44-8.49,12.93,14.08,16.79,21.54,18,20,3.3,40.54,4.27,60.8,5.13,28.79,1.22,57.63,1.44,86.44.87,26.38-.52,52.9-1.43,79.13-4.43,7.48-.85,15.1-1.75,22.36-3.81,5.23-1.48,11.7-3.86,12.21-10.24C380.6,43.08,365.67,41.66,364.89,51.29Z"/><line class="cls-1" x1="175.71" y1="304.44" x2="175.8" y2="304.31"/><path class="cls-1" d="M237.85,0C199.41,136.84,101,244.91-4.6,335.64H201.09c3.19-10.22,6-20.44,9.16-30.66H127.06a934.54,934.54,0,0,0,58.3-99.18h41.72c-30.5,82-30.16,81.28-30.5,82h19l22.38-73.21c22.77,119.75,118.05,121,129.6,121H480.31C357.25,229.7,263.46,91.15,237.85,0Zm0,169.55h-29a724.32,724.32,0,0,0,29-83.41,726.22,726.22,0,0,0,29,83.41ZM251,205.8h39.36l59,99.14C263.85,305,251,205.8,251,205.8Z"/></g></svg>