<svg xmlns="http://www.w3.org/2000/svg" viewBox="0 0 268.25 268.25"><defs><style>.cls-1{fill:#fff;}</style></defs><g id="Layer_2" data-name="Layer 2"><path class="cls-1" d="M134.12,0A134.13,134.13,0,1,0,268.25,134.12,134.12,134.12,0,0,0,134.12,0ZM208.7,191.62H196.47c-5.55,0-51.36-.62-62.31-58.19l-10.76,35.2h-9.12c.16-.36,0,0,14.66-39.43h-20a450,450,0,0,1-28,47.68h40c-1.54,4.91-2.87,9.83-4.4,14.74H17.55c41.61-35.76,80.91-77.13,103.91-127.13-5.11-.09-10.21-.22-15.31-.43-9.74-.41-19.6-.88-29.23-2.47-3.58-.59-14.44-2.44-10.36-8.66,1.25-1.9,3.68-2.56,5.74-3.1a70,70,0,0,1,9.64-1.62,407.59,407.59,0,0,1,47.2-2.47c1.83-5.08,3.51-10.24,5-15.49a155.07,155.07,0,0,0,5.38,15.57c5.89.08,11.77.24,17.62.43a309.24,309.24,0,0,1,31.46,2.25c3.54.48,13.34,1,13.76,6.12v0a3.55,3.55,0,0,1,0,.93c-.25,3.07-3.36,4.21-5.87,4.93a67.27,67.27,0,0,1-10.75,1.83c-12.51,1.43-25.15,1.87-37.73,2.12,20.42,40.08,57.42,88.2,102.67,127.15ZM104.29,176.56l-.05.06Z"/><path class="cls-1" d="M184.43,55.25,182,55c-11.67-1.16-23.42-1.59-35.13-1.8l-4.23-.07q.94,2.12,1.95,4.26c3.63-.07,7.26-.15,10.88-.26C165.1,56.82,174.8,56.35,184.43,55.25Z"/><path class="cls-1" d="M83.79,55.25l2.51.26c12.68,1.26,25.46,1.82,38.25,2,.62-1.49,1.24-3,1.84-4.48A360,360,0,0,0,83.79,55.25Z"/><path class="cls-1" d="M72.08,53.09,72,53s0,.05,0,.07Z"/><path class="cls-1" d="M134.12,71.66a347.21,347.21,0,0,1-14,40.11h27.9A349.11,349.11,0,0,1,134.12,71.66Z"/><path class="cls-1" d="M140.43,129.2s6.19,47.67,47.3,47.66L159.36,129.2Z"/><path class="cls-1" d="M72.13,57.43c-.38.22-.47.51,0,0Z"/><line class="cls-1" x1="104.24" y1="176.62" x2="104.29" y2="176.56"/></g></svg>