<?xml version="1.0" encoding="UTF-8"?><svg id="Layer_2" xmlns="http://www.w3.org/2000/svg" viewBox="0 0 173.32 172.06"><defs><style>.cls-1{fill:#fff;}</style></defs><path class="cls-1" d="M86.66,11.47c41.41,0,75.09,33.69,75.09,75.09s-33.69,75.09-75.09,75.09S11.57,127.96,11.57,86.56,45.25,11.47,86.66,11.47m0-5C42.43,6.47,6.57,42.33,6.57,86.56s35.86,80.09,80.09,80.09,80.09-35.86,80.09-80.09S130.89,6.47,86.66,6.47h0Z"/><g><line class="cls-1" x1="70.02" y1="108.37" x2="70.04" y2="108.33"/><path class="cls-1" d="M86.66,26.86c-10.29,36.64-36.65,65.57-64.92,89.87h55.07c.86-2.74,1.6-5.47,2.45-8.21h-22.27c5.72-8.53,10.96-17.35,15.61-26.55,3.28,0,7.89,0,11.17,0-8.17,21.96-8.07,21.76-8.17,21.96h5.08l5.99-19.6c6.1,32.06,31.61,32.39,34.7,32.41h30.2c-32.95-28.37-58.06-65.46-64.92-89.87Zm0,45.4h-7.77c3.04-7.31,5.63-14.71,7.77-22.33,2.13,7.62,4.72,15.02,7.77,22.33h-7.77Zm3.51,9.71c3.96,0,6.58,0,10.54,0l15.8,26.54c-22.89,0-26.34-26.54-26.34-26.54Z"/></g></svg>