<svg xmlns="http://www.w3.org/2000/svg" viewBox="0 0 484.92 335.64"><defs><style>.cls-1{fill:#00a8e8;}</style></defs><g id="Layer_2" data-name="Layer 2"><path class="cls-1" d="M271.36,71.18c26.17-.53,52.47-1.44,78.5-4.42C357.33,65.91,365,65,372.21,63c5.23-1.48,11.7-3.86,12.22-10.24a8.19,8.19,0,0,0-.08-2h0C383.47,40,363.08,39,355.72,38c-21.65-3-43.61-3.94-65.43-4.67q-18.27-.61-36.68-.91A318.37,318.37,0,0,1,242.46,0q-4.61,16.38-10.33,32.22c-32.86,0-65.78,1.33-98.2,5.15a144.66,144.66,0,0,0-20.05,3.36c-4.29,1.13-9.35,2.49-11.94,6.44C93.46,60.1,116,64,123.48,65.19c20,3.3,40.54,4.27,60.8,5.13q15.91.68,31.83,1C168.27,175.24,86.53,261.27,0,335.64H205.69c3.2-10.22,6-20.44,9.16-30.66H131.67A936.24,936.24,0,0,0,190,205.8h41.72c-30.5,82-30.16,81.28-30.5,82h19l22.37-73.21c22.77,119.75,118,121,129.6,121H484.92C390.81,254.63,313.83,154.55,271.36,71.18Zm-2.5-23.47c24.37.45,48.8,1.33,73.07,3.75,1.72.17,3.44.36,5.15.55-20,2.28-40.2,3.26-60.33,3.88q-11.29.34-22.62.56Q262,52,260.06,47.56Zm-155.45-.22h0a1.31,1.31,0,0,0-.12-.15Zm.11,9c-1,1.1-.79.44,0,0Zm29.47-4c-1.74-.17-3.48-.36-5.23-.55,29.27-3.54,59-4.62,88.64-4.69q-1.87,4.7-3.83,9.35C196,56.35,169.37,55.17,143,52.54Zm99.47,117h-29a726.22,726.22,0,0,0,29-83.41,722.42,722.42,0,0,0,29,83.41Zm13.12,36.25H295l59,99.14C268.46,305,255.58,205.8,255.58,205.8Z"/></g></svg>