<?xml version="1.0" encoding="UTF-8"?><svg xmlns="http://www.w3.org/2000/svg" xmlns:xlink="http://www.w3.org/1999/xlink" viewBox="0 0 226.67 268.25"><defs><style>.f{fill:#fff;}.g,.h{fill:none;}.g,.h,.i,.j{stroke-miterlimit:10;}.g,.j{stroke:#221f1f;}.h,.i{stroke:#000;}.k{fill:url(#c);}.l{fill:#fbca96;}.m{opacity:.1;}.n,.j{fill:#1d1d1d;}.o{fill:url(#d);}.p{fill:url(#e);}.q{fill:#2d2d2d;}.r{fill:#221f1f;}</style><linearGradient id="c" x1="90.28" y1="127.97" x2="90.28" y2="109.16" gradientTransform="matrix(1, 0, 0, 1, 0, 0)" gradientUnits="userSpaceOnUse"><stop offset="0" stop-color="#29a9e1"/><stop offset="1" stop-color="#1975b8"/></linearGradient><linearGradient id="d" x1="134.28" y1="240.36" x2="134.28" y2="221.55" gradientTransform="translate(0 349.52) scale(1 -1)" gradientUnits="userSpaceOnUse"><stop offset="0" stop-color="#1975b8"/><stop offset="1" stop-color="#29a9e1"/></linearGradient><linearGradient id="e" x1="117.72" y1="118.56" x2="150.84" y2="118.56" gradientTransform="matrix(1, 0, 0, 1, 0, 0)" gradientUnits="userSpaceOnUse"><stop offset="0" stop-color="#1975b8"/><stop offset="1" stop-color="#27a8e0"/></linearGradient></defs><g id="a"/><g id="b"><path d="M0,217.18c0-25.33,50.74-45.87,113.34-45.87s113.33,20.54,113.33,45.87"/><path class="l" d="M140.06,178.1c0,16.23-11.96,29.39-26.72,29.39s-26.72-13.16-26.72-29.39,11.96-29.39,26.72-29.39,26.72,13.16,26.72,29.39Z"/><g><path class="l" d="M72.06,144.05c-1.91-.77-7.63-3.51-9.8-9.51-.63-1.73-1.22-3.42-1.79-5.02-1.94-5.48-3.47-9.81-4.66-11.67-.62-.97-.4-4.61,1.17-7.46,.82-1.49,2.29-3.27,4.66-3.27,1.02,0,2.13,.33,3.31,.97,7.58,4.14,7.23,31.26,7.11,35.96Z"/><path d="M61.64,107.61h0c.93,0,1.96,.31,3.07,.91,6.3,3.44,7.11,25.06,6.87,34.78-2.26-1.02-6.95-3.69-8.85-8.94-.63-1.73-1.22-3.42-1.79-5.02-1.95-5.51-3.49-9.86-4.71-11.77-.48-.76-.32-4.22,1.18-6.95,.75-1.37,2.09-3.01,4.22-3.01m0-1c-5.8,0-7.52,9.51-6.25,11.5,1.5,2.36,3.67,9.06,6.4,16.59,2.73,7.54,10.74,10.05,10.74,10.05,0,0,1.28-32.4-7.35-37.11-1.32-.72-2.5-1.03-3.55-1.03h0Z"/></g><path class="h" d="M64.3,114.03s-2.47-2-4.57-1"/><path class="h" d="M64,132.7c-.06,1.19,1.96,4.97,3.65,4.55,.64,.82,.91,1.61,1.88,2.06"/><g><path class="l" d="M154.41,144.05c-.12-4.7-.47-31.83,7.11-35.96,1.18-.64,2.29-.97,3.31-.97,2.37,0,3.84,1.78,4.66,3.27,1.56,2.85,1.78,6.49,1.17,7.46-1.19,1.86-2.72,6.19-4.66,11.67-.57,1.6-1.16,3.29-1.79,5.02-2.17,5.99-7.89,8.74-9.8,9.51Z"/><path d="M164.82,107.61c2.13,0,3.47,1.63,4.22,3.01,1.5,2.74,1.67,6.2,1.18,6.96-1.22,1.91-2.76,6.26-4.71,11.77-.57,1.6-1.16,3.29-1.79,5.02-1.89,5.22-6.59,7.91-8.85,8.93-.24-9.72,.57-31.33,6.87-34.78,1.1-.6,2.14-.91,3.07-.91m0-1c-1.05,0-2.23,.31-3.55,1.03-8.63,4.71-7.35,37.11-7.35,37.11,0,0,8.02-2.51,10.74-10.05,2.73-7.54,4.9-14.24,6.4-16.59,1.27-1.99-.45-11.5-6.25-11.5h0Z"/></g><path class="h" d="M160.82,114.03s2.46-2,4.56-1"/><path class="h" d="M162.46,132.7c.06,1.19-1.96,4.97-3.65,4.55-.64,.82-.91,1.61-1.88,2.06"/><g><path class="l" d="M113.1,182.67c-26,0-47.97-32.86-47.97-71.76s21.52-69.08,47.97-69.08,47.97,30.99,47.97,69.08-21.97,71.76-47.97,71.76Z"/><path d="M113.1,42.33c26.18,0,47.47,30.77,47.47,68.58s-21.74,71.26-47.47,71.26-47.47-32.63-47.47-71.26,21.3-68.58,47.47-68.58m0-1c-26.77,0-48.47,31.15-48.47,69.58s21.7,72.26,48.47,72.26,48.47-33.83,48.47-72.26-21.7-69.58-48.47-69.58h0Z"/></g><path d="M113.4,160.31c10.3-.1,17.44-3.7,17.54-3.76l-.72-.92c-.1,.05-7.01,3.53-16.98,3.59-9.98-.1-16.89-3.6-16.99-3.66l-.72,.92c.11,.06,7.22,3.68,17.52,3.82h0c.06,0,.12,0,.19,0,.05,0,.1,0,.16,0h0Z"/><path d="M85.49,103.03s15.11,3.01,18.87,.75c-1-1.5,.68-3.64-1.75-3.84-10.91-.92-12.44-2.76-16.78-3.62,0,0-6.35,6.44-9.33,11.36"/><g><path d="M122.74,99.94c-2.43,.2-.75,2.34-1.75,3.84,2.47,1.48,9.85,.69,14.61-.03l-4.55-4.99c-2.02,.45-4.62,.86-8.31,1.17Z"/><path d="M148.85,107.69c-2.98-4.93-9.33-11.36-9.33-11.36-2.21,.44-3.7,1.13-6.06,1.83l3.77,5.35c1.59-.26,2.62-.47,2.62-.47"/></g><polyline class="j" points="63.71 113.92 73.29 116.26 75.55 110.24 63.52 109.8"/><path class="n" d="M118.88,109.91c-1.76,.77-4.32,1-6.74,1.01-2.42,0-4.98-.24-6.74-1.01-4.32-1.89,1.12,9.85,1.12,9.85,0,0,2.52-4.04,5.58-4.21h0s.05-.01,.07-.01h0c3.06,.18,5.58,4.22,5.58,4.22,0,0,5.44-11.74,1.12-9.85Z"/><path class="k" d="M106.17,124.9c0,1.7-.85,3.07-1.9,3.07h-27.99c-1.05,0-1.9-1.38-1.9-3.07v-12.67c0-1.7,.85-3.07,1.9-3.07h27.99c1.05,0,1.9,1.38,1.9,3.07v12.67Z"/><polyline class="j" points="161.2 113.92 151.35 116.26 149.04 110.24 161.39 109.8"/><path class="r" d="M104.28,128.63h-27.99c-1.44,0-2.56-1.64-2.56-3.74v-12.67c0-2.1,1.13-3.74,2.56-3.74h27.99c1.44,0,2.56,1.64,2.56,3.74v12.67c0,2.1-1.13,3.74-2.56,3.74Zm-27.99-18.81c-.58,0-1.23,1.03-1.23,2.4v12.67c0,1.38,.65,2.4,1.23,2.4h27.99c.58,0,1.23-1.03,1.23-2.4v-12.67c0-1.38-.65-2.4-1.23-2.4h-27.99Z"/><g><path class="o" d="M150.18,112.23c0-1.7-.85-3.07-1.9-3.07h-27.99c-1.05,0-1.9,1.38-1.9,3.07v12.67c0,1.7,.85,3.07,1.9,3.07h27.99c1.05,0,1.9-1.38,1.9-3.07v-12.67Z"/><path class="p" d="M148.28,128.63h-27.99c-1.44,0-2.57-1.64-2.57-3.74v-12.67c0-2.1,1.13-3.74,2.57-3.74h27.99c1.44,0,2.56,1.64,2.56,3.74v12.67c0,2.1-1.13,3.74-2.56,3.74Zm-27.99-18.81c-.58,0-1.23,1.03-1.23,2.4v12.67c0,1.38,.65,2.4,1.23,2.4h27.99c.58,0,1.23-1.03,1.23-2.4v-12.67c0-1.38-.65-2.4-1.23-2.4h-27.99Z"/></g><path class="r" d="M150.84,112.23v12.67c0,2.1-1.13,3.74-2.56,3.74h-27.99c-1.44,0-2.57-1.64-2.57-3.74v-12.67c0-2.1,1.13-3.74,2.57-3.74h27.99c1.44,0,2.56,1.64,2.56,3.74Zm-2.56,15.07c.58,0,1.23-1.03,1.23-2.4v-12.67c0-1.38-.65-2.4-1.23-2.4h-27.99c-.58,0-1.23,1.03-1.23,2.4v12.67c0,1.38,.65,2.4,1.23,2.4h27.99Z"/><g><path class="q" d="M158.33,134.06c-.08-.17-.2-.49-.34-1.04-.92-3.68-1.24-9.83-1.62-16.96-.52-9.91-1.11-21.14-3.52-29.22-6.99-15.08-20.39-17.32-27.76-17.32-3.67,0-6.12,.53-6.22,.56-8.97,2.77-14.49,4-17.95,4-3.13,0-4.5-.97-6.4-2.31l-.88-.62-.27,.14c-1.91,1-5.71,1.54-10.7,1.54-2.05,0-3.55-.1-3.56-.1l-.44-.03-.08,.43c-.01,.07-.34,1.85-.09,4.32,.1,1-.75,1.92-2.04,3.31-1.35,1.45-3.19,3.43-4.91,6.59-2,3.66-2.65,19.5-3.16,32.22-.24,5.82-.48,11.81-.81,14.14-1.7-4.14-3.39-10.27-3.69-25.92-.04-2.5-.42-5.35-.82-8.36-1.42-10.69-3.2-23.99,7.71-36.56l.09-.11,.02-.14c4.01-24.55,32.08-28.22,48.46-28.22,5.39,0,9.52,.38,11.29,.54,.06,0,.12,.01,.18,.02-.55,3.02-.68,3.51-.68,3.53l-.15,.6,4.46,.18c21.77,4.07,28.37,25.66,30.53,32.76,.15,.5,.28,.92,.39,1.25,.67,6.17-.52,16.29-3.45,29.29l-.06,.73c-1.58,22.85-2.76,29.48-3.51,30.76Z"/><path d="M119.32,34.9c5.03,0,8.95,.33,10.88,.51-.46,2.49-.57,2.94-.57,2.95l-.31,1.2,1.24,.05,3.78,.15c21.49,4.06,28.01,25.39,30.15,32.41,.15,.48,.27,.89,.38,1.21,.66,6.12-.54,16.17-3.45,29.07l-.02,.07v.08l-.05,.63c-1.31,18.84-2.33,26.3-3,29.14-.82-3.68-1.13-9.57-1.48-16.34-.52-9.94-1.11-21.2-3.54-29.34l-.02-.07-.03-.07c-7.08-15.27-20.7-17.54-28.19-17.54-3.73,0-6.23,.54-6.33,.57h-.04l-.04,.02c-8.88,2.74-14.36,3.97-17.77,3.97-2.97,0-4.22-.88-6.12-2.22-.21-.15-.42-.29-.64-.45l-.5-.34-.53,.28c-1.84,.96-5.56,1.49-10.47,1.49-2.03,0-3.51-.09-3.53-.09l-.88-.06-.17,.87c-.01,.08-.36,1.93-.1,4.47,.08,.74-.6,1.51-1.91,2.92-1.36,1.47-3.23,3.48-4.98,6.69-1.91,3.49-2.56,16.19-3.22,32.44-.18,4.52-.37,9.14-.6,12.04-1.25-3.64-2.64-10-2.9-23.8-.04-2.54-.42-5.39-.82-8.42-1.41-10.59-3.17-23.76,7.59-36.17l.19-.21,.05-.28c1.74-10.62,8.19-18.34,19.17-22.93,9.62-4.02,20.97-4.86,28.8-4.86m0-1c-16.64,0-44.87,3.63-48.95,28.63-14.19,16.37-7.18,34.07-7.01,45.26,.33,17.53,2.42,23.13,4.09,26.97,.07,.16,.13,.23,.19,.23,1.43,0,1.03-41.4,4.31-47.41,3.42-6.26,7.26-7.77,7.01-10.19-.25-2.42,.08-4.18,.08-4.18,0,0,1.5,.1,3.59,.1,3.4,0,8.35-.26,10.94-1.6,2.26,1.57,3.68,2.84,7.32,2.84,3.35,0,8.57-1.08,18.06-4.01,0,0,2.46-.54,6.12-.54,7.63,0,20.51,2.36,27.28,16.96,4.12,13.81,2.91,37.26,5.14,46.16,.27,1.09,.54,1.58,.81,1.58,1.91,0,3.59-25.01,4.07-32.04,2.56-11.36,4.23-22.49,3.45-29.5-1.56-4.68-7.57-29.95-31.4-34.4l-3.85-.15s.13-.48,.79-4.11c-.85-.06-5.58-.61-12.06-.61h0Z"/></g><path class="g" d="M105.16,51.57c1.29-.2,2.28-1.32,3.45-1.87,1.22-.58,2.93-.84,4.34-.92,1.36-.08,2.88-.49,4.21-.31,.73,.1,3.07,.47,3.59,.87"/><path class="g" d="M123.31,49.79c.83,0,1.65,.17,2.45,.11"/><path class="g" d="M141.9,48.9c1.47-.68,4.84,2.63,5.81,3.67,1.42,1.5,3.33,2.68,4.88,3.91"/><path class="g" d="M116.07,56.14c1.46-.13,3.02-1.25,4.46-1.64,1.52-.41,2.77-.95,4.31-1.03,.88-.04,1.94-.14,2.81,0,.93,.15,1.69,.68,2.65,.87,1.45,.29,3.28-.02,4.36,1.02"/><path class="g" d="M141.24,60.25c1.58,.16,3.79-.26,5.26,.31,1.3,.5,2.05,2.07,3.11,3.01,2.2,1.95,2.45,5.02,4.63,7.18,.33,.33,.69,.79,1.03,1.09"/><path class="g" d="M72.63,67.44c-1.28,.41-2.42,1.27-3.12,2.45"/><path class="g" d="M73.96,69.66c-.88,.86-3.29,3.54-2.23,4.68"/><path class="g" d="M80.56,56.36c-1.29,1.94-3.9,3.94-4.34,6.23"/><path class="g" d="M158.83,86.31c.24,.46,.8,.95,1.08,1.48,.34,.63,.29,1.27,.5,1.95,.35,1.14,.72,2.32,.98,3.48"/><path class="r" d="M106.2,132.19l-1.29-.36c.01-.05,1.45-5.38,1.67-17.87l1.34,.02c-.22,12.69-1.66,17.98-1.72,18.2Z"/><path class="r" d="M106.2,132.19l-1.29-.36c.01-.05,1.45-5.38,1.67-17.87l1.34,.02c-.22,12.69-1.66,17.98-1.72,18.2Z"/><path class="r" d="M118.16,132.19c-.06-.22-1.5-5.51-1.72-18.2l1.34-.02c.22,12.49,1.65,17.82,1.67,17.87l-1.29,.36Z"/><path d="M121.75,138.25l-.99,.47s1.21,1.86,.34,3.15c-.61,.9-2.12,1.38-4.48,1.41h-.3l-.16,.22c-.76,.98-1.76,1.58-2.9,1.72-.23,.03-.48,.03-.72,.02-.25,0-.49,.01-.72-.02-1.14-.14-2.14-.74-2.9-1.72l-.16-.21h-.3c-2.36-.04-3.87-.51-4.48-1.41-.87-1.29,.33-3.13,.34-3.15l-.99-.47c-.06,.1-1.53,2.33-.34,4.09,.79,1.17,2.52,1.81,5.15,1.89,.92,1.09,2.13,1.76,3.51,1.94,.24,.03,.49,.05,.74,.05,.05,0,.1,0,.16,0,.05,0,.11,0,.16,0,.25,0,.5-.01,.74-.05,1.38-.18,2.59-.84,3.51-1.94,2.63-.08,4.36-.72,5.15-1.89,1.19-1.77-.28-4-.34-4.09Z"/><path class="i" d="M93.75,157.81s2.92-1.42,3.17-4.43"/><path class="i" d="M133.25,157.81s-2.92-1.42-3.17-4.43"/><polygon points="114.26 175.18 112.61 175.18 110.34 164.49 116.52 164.49 114.26 175.18"/><path d="M124.19,180.31c-5.19,0-9.53-1.52-10.75-3.58v-.03h-.02v.03c-1.22,2.05-5.56,3.58-10.75,3.58-.36,0-.71,0-1.06-.02,3.18,1.16,7.2,2.27,11.68,2.7h.3c4.48-.42,8.5-1.54,11.68-2.7-.35,.01-.7,.02-1.06,.02Z"/><g><g class="m"><path class="f" d="M84.42,109.24l-9.78,11.15v4.59c0,1.7,.85,3.07,1.9,3.07h10.48l16.51-18.81h-19.1Z"/><path class="f" d="M90.92,128.05h13.61c1.05,0,1.9-1.38,1.9-3.07v-12.67c0-.59-.11-1.13-.28-1.6l-15.22,17.34Z"/><path class="f" d="M76.53,109.24c-1.05,0-1.9,1.38-1.9,3.07v5.29l7.34-8.36h-5.44Z"/></g><g class="m"><path class="f" d="M128.43,127.88l-9.78-11.15v-4.59c0-1.7,.85-3.07,1.9-3.07h10.48l16.51,18.81h-19.1Z"/><path class="f" d="M134.92,109.07h13.61c1.05,0,1.9,1.38,1.9,3.07v12.67c0,.59-.11,1.13-.28,1.6l-15.22-17.34Z"/><path class="f" d="M120.54,127.88c-1.05,0-1.9-1.38-1.9-3.07v-5.29l7.34,8.36h-5.44Z"/></g></g><path class="l" d="M211.98,259.37h-4.34c-8.85,0-14.7-4.85-14.7,4.01v130.76c0,8.85,7.18,16.03,16.03,16.03h1.67c8.85,0,16.03-7.18,16.03-16.03v-130.76c0-8.85-5.84-4.01-14.7-4.01Z"/><path class="l" d="M15.97,410.17h1.67c8.85,0,16.03-7.18,16.03-16.03v-130.76c0-8.85-5.84-4.01-14.7-4.01h-4.34c-7.43,0-12.74-3.41-14.25,.73-.29,.79-.44,1.86-.44,3.28v130.76c0,1.27,.16,2.5,.44,3.68,1.67,7.08,8.01,12.35,15.59,12.35Z"/><path d="M192.89,263.39c0-8.85,5.85-4.01,14.72-4.01h4.35c8.87,0,14.71-4.85,14.71,4.01v-47.54H0v44.25c1.51-4.14,6.82-.73,14.25-.73h4.34c8.85,0,14.7-4.85,14.7,4.01v169.39H192.89v-169.39Z"/><rect x="-.05" y="257.31" width="226.78" height="13.25"/></g></svg>